<svg width="100" height="100" viewBox="0 0 100 100" version="1.1" xmlns="http://www.w3.org/2000/svg" xmlns:xlink="http://www.w3.org/1999/xlink">
<title>graphic</title>
<desc>Created using Figma</desc>
<g id="Canvas" transform="translate(4068 -5024)">
<g id="graphic">
<g id="Mask">
<use xlink:href="#path0_fill" transform="translate(-4068 5024)" fill="#BFD4E8"/>
</g>
<g id="Object">
<mask id="mask0_outline" mask-type="alpha">
<g id="Mask">
<use xlink:href="#path0_fill" transform="translate(-4068 5024)" fill="#FFFFFF"/>
</g>
</mask>
<g id="Rectangle 33" mask="url(#mask0_outline)">
<use xlink:href="#path1_fill" transform="translate(-4097.2 5049)" fill="#A8C1F3"/>
</g>
<g id="Rectangle 33" mask="url(#mask0_outline)">
<use xlink:href="#path2_fill" transform="translate(-4018 5016.5)" fill="#F8E1D9"/>
</g>
</g>
</g>
</g>
<defs>
<path id="path0_fill" fill-rule="evenodd" d="M 100 50C 100 77.6143 77.6143 100 50 100C 22.3857 100 0 77.6143 0 50C 0 22.3857 22.3857 0 50 0C 77.6143 0 100 22.3857 100 50ZM 90.0374 50C 90.0374 72.1123 72.1121 90.0376 50 90.0376C 27.8879 90.0376 9.96265 72.1123 9.96265 50C 9.96265 27.8882 27.8879 9.96289 50 9.96289C 72.1121 9.96289 90.0374 27.8882 90.0374 50Z"/>
<path id="path1_fill" fill-rule="evenodd" d="M 46.7025 11.6667L 143.333 11.6667L 87.5 133.333L 0 0L 46.7025 11.6667Z"/>
<path id="path2_fill" fill-rule="evenodd" d="M 0 0L 58.3333 0L 58.3333 58.3333L 0 58.3333L 0 0Z"/>
</defs>
</svg>
