<svg width="29" height="25" viewBox="0 0 29 25" version="1.1" xmlns="http://www.w3.org/2000/svg" xmlns:xlink="http://www.w3.org/1999/xlink">
<title>ic_g+</title>
<desc>Created using Figma</desc>
<g id="Canvas" transform="translate(2772 -5696)">
<g id="ic_g+">
<use xlink:href="#path0_fill" transform="translate(-2772 5696)" fill="#95A9B1"/>
</g>
</g>
<defs>
<path id="path0_fill" fill-rule="evenodd" d="M 22.4326 4.95752L 22.4326 0.301758L 24.0569 0.301758L 24.0569 4.95752L 28.7134 4.95752L 28.7134 6.58252L 24.0569 6.58252L 24.0569 11.2383L 22.4326 11.2383L 22.4326 6.58252L 17.7756 6.58252L 17.7756 4.95752L 22.4326 4.95752ZM 10.7505 9.5293C 11.0281 9.11328 11.2063 8.68359 11.2861 8.24561C 11.3335 7.80664 11.3567 7.4375 11.3567 7.1377C 11.3567 5.84424 11.0269 4.5376 10.365 3.22217C 10.0544 2.5918 9.64526 2.07715 9.13794 1.68262C 8.62085 1.30713 8.02637 1.10986 7.35352 1.0874C 6.46289 1.10986 5.72388 1.46875 5.1333 2.16357C 4.63672 2.89111 4.39917 3.70459 4.42017 4.60303C 4.42017 5.79053 4.76733 7.02637 5.46265 8.31006C 5.79907 8.90918 6.23389 9.41699 6.76489 9.83398C 7.29663 10.252 7.90503 10.4604 8.58911 10.4604C 9.4541 10.4277 10.1731 10.1177 10.7505 9.5293ZM 12.3516 17.9071C 12.8946 18.5253 13.1677 19.251 13.1677 20.0842C 13.1677 21.1101 12.7699 21.948 11.9756 22.5991C 11.1608 23.2615 9.97922 23.6033 8.43215 23.6257C 6.70694 23.6033 5.34722 23.2186 4.35366 22.4712C 3.30798 21.7237 2.78613 20.7737 2.78613 19.6198C 2.78613 19.0333 2.90686 18.5306 3.14701 18.1136C 3.35548 17.7184 3.61212 17.3872 3.91494 17.1207C 4.22897 16.8647 4.53707 16.6675 4.84055 16.5289C 5.14337 16.4003 5.37889 16.3046 5.54646 16.2393C 6.257 16.0262 6.9517 15.8718 7.63189 15.7762C 8.32197 15.7115 8.7508 15.6904 8.91771 15.7115C 9.20008 15.7115 9.4455 15.7221 9.65463 15.7438C 10.8778 16.5982 11.777 17.3193 12.3516 17.9071ZM 15.9511 0L 9.38473 0C 8.51454 0 7.58036 0.101599 6.5835 0.304798C 5.57872 0.539663 4.60759 1.04238 3.67472 1.81097C 2.31501 3.12319 1.63548 4.58582 1.63548 6.19755C 1.63548 7.5322 2.11577 8.70059 3.07503 9.7047C 3.99074 10.7827 5.3234 11.3323 7.07038 11.354C 7.40091 11.354 7.75321 11.3323 8.12662 11.29C 8.06394 11.4622 7.99731 11.6489 7.9254 11.8535C 7.84293 12.0468 7.80203 12.2889 7.80203 12.5778C 7.80203 13.0614 7.91022 13.4744 8.12662 13.8175C 8.31134 14.1718 8.52246 14.5056 8.7593 14.817C 7.99269 14.8388 7.03146 14.9331 5.87098 15.104C 4.70127 15.3065 3.58434 15.7109 2.52019 16.3192C 1.57347 16.8839 0.919011 17.5397 0.557476 18.2846C 0.186705 19.0314 0 19.7076 0 20.3159C 0 21.5621 0.57265 22.6335 1.71597 23.5288C 2.85072 24.4874 4.56801 24.9776 6.86784 25C 9.61498 24.9558 11.7169 24.2987 13.1736 23.0294C 14.5788 21.8016 15.2814 20.3911 15.2814 18.8018C 15.2617 17.6796 15.005 16.7724 14.5135 16.0791C 13.9923 15.3956 13.3854 14.7715 12.6933 14.2041L 11.579 13.2917C 11.418 13.1307 11.2518 12.9453 11.0816 12.7316C 10.8817 12.5066 10.7807 12.2242 10.7807 11.8838C 10.7807 11.5308 10.8784 11.2214 11.075 10.9542C 11.2412 10.6969 11.422 10.4674 11.6173 10.2655C 11.9597 9.96596 12.2823 9.67172 12.5858 9.38407C 12.8596 9.09643 13.1182 8.78107 13.3629 8.43933C 13.8624 7.73407 14.1216 6.79527 14.1414 5.62028C 14.1414 4.97902 14.0688 4.41957 13.9244 3.93928C 13.7495 3.45833 13.5483 3.04138 13.3214 2.68974C 13.0845 2.31567 12.8417 2.00032 12.595 1.74434C 12.337 1.49826 12.1048 1.31221 11.8996 1.18356L 13.9224 1.18356L 15.9511 0Z"/>
</defs>
</svg>
