<svg width="97" height="21" viewBox="0 0 97 21" version="1.1" xmlns="http://www.w3.org/2000/svg" xmlns:xlink="http://www.w3.org/1999/xlink">
<title>logo</title>
<desc>Created using Figma</desc>
<g id="Canvas" transform="translate(4154 785)">
<g id="logo">
<g id="retangule">
<use xlink:href="#path0_fill" transform="translate(-4076 -769.19)" fill="#CFC9C6"/>
</g>
<g id="WILD">
<use xlink:href="#path1_fill" transform="translate(-4153.36 -784.471)" fill="#C1B2B1"/>
</g>
</g>
</g>
<defs>
<path id="path0_fill" fill-rule="evenodd" d="M 0 0L 19 0L 19 5.09051L 0 5.09051L 0 0Z"/>
<path id="path1_fill" fill-rule="evenodd" d="M 23.61 20.3722L 29.34 0L 22.53 0L 19.98 12.4616L 16.95 0L 12.39 0L 9.36 12.4616L 6.78 0L 0 0L 5.73 20.3722L 12.09 20.3722L 14.67 8.82695L 17.25 20.3722L 23.61 20.3722ZM 36.6601 20.3722L 36.6601 0L 30.6001 0L 30.6001 20.3722L 36.6601 20.3722ZM 53.5499 20.3722L 53.5499 14.9967L 45.9599 14.9967L 45.9599 0L 39.8999 0L 39.8999 20.3722L 53.5499 20.3722ZM 64.95 20.3722C 71.22 20.3722 75.9 16.6765 75.9 10.1708C 75.9 3.66517 71.22 0 64.92 0L 55.98 0L 55.98 20.3722L 64.95 20.3722ZM 64.92 14.9967L 62.04 14.9967L 62.04 5.37561L 64.95 5.37561C 68.19 5.37561 69.75 7.422 69.75 10.1709C 69.75 12.7365 67.95 14.9967 64.92 14.9967Z"/>
</defs>
</svg>
