<svg width="31" height="25" viewBox="0 0 31 25" version="1.1" xmlns="http://www.w3.org/2000/svg" xmlns:xlink="http://www.w3.org/1999/xlink">
<title>ic_twitter</title>
<desc>Created using Figma</desc>
<g id="Canvas" transform="translate(2912 -5696)">
<g id="ic_twitter">
<use xlink:href="#path0_fill" transform="translate(-2912 5696)" fill="#95A9B1"/>
</g>
</g>
<defs>
<path id="path0_fill" fill-rule="evenodd" d="M 30.7625 2.95918C 29.6305 3.4613 28.4144 3.80036 27.1376 3.95291C 28.4407 3.17151 29.4412 1.93485 29.9127 0.460997C 28.6932 1.18453 27.3423 1.70961 25.9048 1.99271C 24.7532 0.766097 23.1135 0 21.2982 0C 17.8125 0 14.9867 2.82576 14.9867 6.31097C 14.9867 6.80544 15.0422 7.28748 15.1498 7.74944C 9.90474 7.48594 5.2546 4.97341 2.14144 1.15536C 1.59866 2.08692 1.28687 3.17103 1.28687 4.32782C 1.28687 6.51708 2.40111 8.44906 4.09446 9.58099C 3.06008 9.54799 2.08692 9.26441 1.23618 8.79146C 1.2357 8.81776 1.2357 8.84454 1.2357 8.87084C 1.2357 11.929 3.41157 14.4798 6.29806 15.0594C 5.7682 15.2038 5.2106 15.2813 4.63531 15.2813C 4.22931 15.2813 3.83335 15.2416 3.44839 15.1675C 4.25083 17.6752 6.58212 19.4996 9.3438 19.5503C 7.18371 21.2432 4.46268 22.2522 1.50541 22.2522C 0.996117 22.2522 0.493515 22.2225 0 22.1637C 2.79276 23.9546 6.11012 25 9.67424 25C 21.2833 25 27.6316 15.3831 27.6316 7.04264C 27.6316 6.7691 27.6254 6.497 27.6134 6.22633C 28.8463 5.33637 29.916 4.22453 30.7625 2.95918Z"/>
</defs>
</svg>
